<svg width="373" height="393" viewBox="0 0 373 393" fill="none" xmlns="http://www.w3.org/2000/svg">
<rect width="373" height="393" rx="50" fill="black"/>
<path d="M182.781 311.243C184.768 313.453 188.232 313.453 190.219 311.243L285.09 205.687C287.983 202.469 285.699 197.345 281.371 197.345H91.6285C87.3013 197.345 85.0172 202.469 87.9098 205.687L182.781 311.243Z" fill="url(#paint0_linear_2_47)"/>
<rect x="140" y="94.0001" width="92" height="126" rx="20" fill="url(#paint1_linear_2_47)"/>
<path d="M164 68C164 56.9543 172.954 48 184 48H227C238.046 48 247 56.9543 247 68V154C247 165.046 238.046 174 227 174H184C172.954 174 164 165.046 164 154V68Z" fill="url(#paint2_linear_2_47)"/>
<path d="M177 147.529C177 146.165 178.106 145.059 179.471 145.059H231.82C233.184 145.059 234.29 146.165 234.29 147.529V147.529C234.29 148.894 233.184 150 231.82 150H179.471C178.106 150 177 148.894 177 147.529V147.529Z" fill="black"/>
<path d="M177 129C177 127.636 178.106 126.529 179.471 126.529H231.82C233.184 126.529 234.29 127.636 234.29 129V129C234.29 130.364 233.184 131.471 231.82 131.471H179.471C178.106 131.471 177 130.364 177 129V129Z" fill="black"/>
<path d="M177 110.471C177 109.106 178.106 108 179.471 108H231.82C233.184 108 234.29 109.106 234.29 110.471V110.471C234.29 111.835 233.184 112.941 231.82 112.941H179.471C178.106 112.941 177 111.835 177 110.471V110.471Z" fill="black"/>
<path d="M223.51 46.8671L268.949 30.5364L257.578 81.0844L223.51 46.8671Z" fill="black"/>
<defs>
<linearGradient id="paint0_linear_2_47" x1="186.5" y1="315.38" x2="186.5" y2="158" gradientUnits="userSpaceOnUse">
<stop stop-color="#96DD28" stop-opacity="0"/>
<stop offset="0.0001" stop-color="#96DD28"/>
<stop offset="0.0002" stop-color="#C8FF73"/>
</linearGradient>
<linearGradient id="paint1_linear_2_47" x1="186" y1="94.0001" x2="186" y2="220" gradientUnits="userSpaceOnUse">
<stop stop-color="#96DD28"/>
<stop offset="1" stop-color="#C8FF73"/>
</linearGradient>
<linearGradient id="paint2_linear_2_47" x1="205.5" y1="48" x2="205.5" y2="174" gradientUnits="userSpaceOnUse">
<stop stop-color="#C0C0C0"/>
<stop offset="1" stop-color="white"/>
</linearGradient>
</defs>
</svg>
